<?xml version="1.0" encoding="UTF-8"?>
<!-- Generator: Adobe Illustrator 25.4.1, SVG Export Plug-In . SVG Version: 6.00 Build 0)  -->
<svg version="1.1" id="Layer_1" xmlns="http://www.w3.org/2000/svg" xmlns:xlink="http://www.w3.org/1999/xlink" x="0px" y="0px" viewBox="0 0 680.8 82" style="enable-background:new 0 0 680.8 82;" xml:space="preserve">
	<style type="text/css">
	.st0{fill:#FFB500;}
	.st1{fill:#4B4B4B;}
	</style>
	<g>

		<g id="Group-2" transform="translate(30.500000, 37.835579) scale(-1, 1) translate(-30.500000, -37.835579) translate(0.000000, 2.835579)">
			<polygon class="st0" points="39.5,62.7 61,39.2 39.5,15.6 26.2,27.7 36.7,39.2 26.2,50.6   "/>
			<polygon class="st1" points="18.6,79.2 31.1,66.2 1.9,38.2 31.1,10.2 18.6,-2.8 -24.2,38.2   "/>
		</g>
		<g id="BigThinkCode" transform="translate(93.000000, 0.827768)">
			<path id="BIG" class="st1" d="M39.6,74.6c3.8,0,7-0.5,9.7-1.5s4.8-2.4,6.5-4.2s2.9-4,3.7-6.5s1.2-5.3,1.2-8.3    c0-1.8-0.2-3.6-0.7-5.4c-0.5-1.8-1.3-3.4-2.3-4.9s-2.4-2.7-4-3.8c-1.6-1-3.6-1.6-5.9-1.8V38c2-0.4,3.6-1.1,5-2    c1.4-1,2.5-2.2,3.4-3.6c0.9-1.4,1.5-3,2-4.7c0.4-1.7,0.6-3.5,0.6-5.3c0-5.3-1.5-9.5-4.6-12.6c-3.1-3.2-7.9-4.7-14.4-4.7H12.1v69.6    h27.5V74.6z M34.7,32.3h-4.4V18.1h4.4c1.9,0,3.3,0.7,4.3,2.1s1.5,3.1,1.5,5.1c0,1.9-0.5,3.5-1.5,4.9C38,31.6,36.6,32.3,34.7,32.3z     M35.4,61.5h-5.1v-17h5.1c1.7,0,3.2,0.7,4.5,2.1c1.3,1.4,2,3.5,2,6.2c0,2.9-0.7,5.1-2,6.5C38.6,60.8,37.1,61.5,35.4,61.5z     M85.2,74.6V5H67v69.6H85.2z M112.1,75.7c1.6,0,3.1-0.1,4.6-0.3s3-0.5,4.3-1s2.5-1.2,3.6-2.2s1.9-2.2,2.5-3.7h0.2l0.4,6.1h12.4    V36.8h-23.5v12.3h6.5c0,3-0.1,5.4-0.4,7.4c-0.3,1.9-0.7,3.4-1.2,4.5s-1.2,1.8-1.9,2.2c-0.8,0.4-1.6,0.6-2.6,0.6    c-1.4,0-2.5-0.4-3.3-1.1c-0.8-0.7-1.4-2-1.9-3.8c-0.4-1.8-0.7-4.3-0.8-7.4c-0.1-3-0.2-6.8-0.2-11.4v-0.3c0-4.7,0.1-8.6,0.2-11.6    s0.4-5.5,0.8-7.4c0.4-1.8,1.1-3.1,2-3.8s2.1-1.1,3.6-1.1c2.2,0,3.6,1,4.2,3c0.7,1.7,1,4.4,1,8.1h17.5c0-4.2-0.6-7.8-1.7-10.8    s-2.6-5.4-4.6-7.3s-4.3-3.2-7-4.1c-2.7-0.8-5.7-1.3-8.9-1.3c-5.3,0-9.7,0.8-13.1,2.4c-3.4,1.6-6.1,3.9-8,7s-3.2,6.8-3.9,11.3    s-1,9.6-1,15.5c0,5.8,0.2,10.9,0.5,15.4c0.4,4.5,1.2,8.2,2.6,11.3c1.4,3.1,3.4,5.3,6.1,6.9C103.8,74.9,107.5,75.7,112.1,75.7z"/>
			<path id="THINK" class="st0" d="M174.7,74.7V20.2h13.7V4.7h-45.3v15.5h13.5v54.5H174.7z M210.6,74.7V45.9h11.1v28.8h18.1v-70    h-18.1v25.7h-11.1V4.7h-18.1v70H210.6z M265.9,74.7v-70h-18.1v70H265.9z M290.8,74.7V31.5h0.2l12.1,43.2H323v-70h-17v43.1h-0.2    L294.1,4.7h-20.3v70H290.8z M349,74.7V56.2l3.8-5.9l10.6,24.4h20.7l-19.7-39.4L382,4.7h-19.3l-13.5,26.8H349V4.6h-18.1v70    L349,74.7L349,74.7z"/>
			<path id="CODE" class="st1" d="M408,75.7c2.9,0,5.8-0.3,8.5-0.9c2.8-0.6,5.2-1.8,7.4-3.6c2.1-1.8,3.9-4.2,5.2-7.4    c1.3-3.1,2-7.1,2-12v-5.2h-17.6c0,3.3-0.1,6.1-0.2,8.2c-0.2,2.2-0.4,3.9-0.8,5.2c-0.4,1.3-0.9,2.2-1.7,2.8    c-0.7,0.6-1.6,0.8-2.7,0.8c-1.4,0-2.5-0.4-3.3-1.1c-0.8-0.7-1.4-2-1.9-3.8c-0.4-1.8-0.7-4.3-0.8-7.4c-0.1-3-0.2-6.8-0.2-11.4v-0.3    c0-4.7,0.1-8.6,0.2-11.6s0.4-5.5,0.8-7.4c0.4-1.8,1-3.1,1.9-3.8c0.8-0.7,1.9-1.1,3.3-1.1c1.8,0,3,0.7,3.8,2.1s1.2,4.1,1.2,8.1v3.9    h17.6v-4.4c0-3.4-0.4-6.4-1.2-9.1c-0.8-2.7-2.1-5-3.9-6.9c-1.8-1.9-4.1-3.4-7-4.4s-6.3-1.6-10.4-1.6c-4.7,0-8.6,0.6-11.8,1.9    c-3.2,1.3-5.8,3.3-7.7,6.2c-2,2.9-3.3,6.6-4.1,11.2s-1.2,10.2-1.2,16.9c0,6.5,0.3,12,1,16.6s1.9,8.3,3.8,11.2    c1.8,2.9,4.4,5,7.6,6.2C398.8,75.1,402.9,75.7,408,75.7z M460.4,75.7c4.6,0,8.5-0.6,11.7-1.9c3.2-1.2,5.8-3.3,7.7-6.2    c2-2.9,3.4-6.6,4.2-11.2c0.8-4.6,1.3-10.1,1.3-16.6s-0.4-12-1.3-16.6c-0.8-4.6-2.2-8.3-4.2-11.2s-4.5-5-7.7-6.3s-7.1-2-11.7-2    c-4.6,0-8.5,0.7-11.7,2s-5.8,3.4-7.7,6.3s-3.4,6.6-4.2,11.2s-1.3,10.1-1.3,16.6s0.4,12,1.3,16.6c0.8,4.6,2.2,8.3,4.2,11.2    s4.5,5,7.7,6.2C451.9,75.1,455.8,75.7,460.4,75.7z M460.4,63.7c-1.4,0-2.5-0.4-3.3-1.1c-0.8-0.7-1.4-2-1.9-3.8    c-0.4-1.8-0.7-4.3-0.8-7.4c-0.1-3-0.2-6.8-0.2-11.4v-0.3c0-4.7,0.1-8.6,0.2-11.6c0.1-3.1,0.4-5.5,0.8-7.4c0.4-1.8,1-3.1,1.9-3.8    s1.9-1.1,3.3-1.1c1.4,0,2.5,0.4,3.3,1.1c0.8,0.7,1.4,2,1.9,3.8c0.4,1.8,0.7,4.3,0.8,7.4s0.2,7,0.2,11.6s-0.1,8.6-0.2,11.6    s-0.4,5.5-0.8,7.4c-0.4,1.8-1,3.1-1.9,3.8C462.9,63.3,461.8,63.7,460.4,63.7z M518.2,74.6c5.3,0,9.4-1,12.3-2.9    c2.9-1.9,5.1-4.5,6.6-7.7s2.4-6.9,2.7-11.1c0.3-4.2,0.5-8.6,0.5-13.1s-0.2-8.9-0.5-13.1c-0.3-4.2-1.2-7.9-2.7-11.1    c-1.5-3.2-3.7-5.8-6.6-7.7c-2.9-1.9-7-2.9-12.3-2.9h-26.4v69.6H518.2z M513.6,61.5H510V18h3.6c1.8,0,3.2,0.2,4.2,0.7    s1.8,1.5,2.4,3.1s0.9,3.8,1.1,6.6s0.2,6.6,0.2,11.3s-0.1,8.4-0.2,11.3c-0.2,2.9-0.5,5.1-1.1,6.6c-0.6,1.6-1.4,2.6-2.4,3.1    C516.8,61.3,515.4,61.5,513.6,61.5z M590.1,74.6V59.8h-24V46h21.7V31.8h-21.7V19.9h23.1V5.1h-41.3v69.6h42.2V74.6z"/>
		</g>
	</g>
</svg>